<svg xmlns="http://www.w3.org/2000/svg" viewBox="0 0 184.68 148.81"><defs><style>.cls-1{fill:#24588d;}.cls-2{fill:#94a5c4;}.cls-3{fill:#231f20;}</style></defs><title>aspiration-logo_stacked-color</title><g id="Layer_2" data-name="Layer 2"><g id="logos"><g id="aspiration-logo_stacked-color"><g id="triangles"><polygon id="triangle2" class="cls-1" points="167.26 98.71 99.68 98.71 99.68 0 167.26 98.71"/><polygon id="triangle1" class="cls-2" points="93.29 78.77 36.38 78.77 93.29 0 93.29 78.77"/></g><path id="logotype" class="cls-3" d="M20.54,133.56H6.7l-2.87,6.51H0L12.75,111.9h1.76l12.8,28.17H23.4Zm-1.3-3-5.62-12.76L8,130.58Zm13,9.06a10.19,10.19,0,0,1-3.5-1.66l1.49-2.82a10.63,10.63,0,0,0,3.16,1.48,12.79,12.79,0,0,0,3.76.56q4.69,0,4.69-2.68a1.74,1.74,0,0,0-.63-1.41,4,4,0,0,0-1.58-.76q-1-.24-2.7-.54a27.08,27.08,0,0,1-3.89-.86,6,6,0,0,1-2.59-1.64,4.56,4.56,0,0,1-1.07-3.23,5.05,5.05,0,0,1,2.23-4.3,10,10,0,0,1,6-1.62,16.11,16.11,0,0,1,3.94.49A10.37,10.37,0,0,1,44.8,122l-1.53,2.82a10.26,10.26,0,0,0-5.69-1.56,6.54,6.54,0,0,0-3.46.75,2.24,2.24,0,0,0-1.19,2,1.86,1.86,0,0,0,.67,1.52,4.11,4.11,0,0,0,1.66.82c.65.18,1.58.37,2.77.6a30,30,0,0,1,3.85.87,5.81,5.81,0,0,1,2.51,1.58,4.45,4.45,0,0,1,1,3.13,4.93,4.93,0,0,1-2.29,4.26,10.82,10.82,0,0,1-6.23,1.58A16.69,16.69,0,0,1,32.26,139.64ZM65,121.43A9.13,9.13,0,0,1,68.52,125a11.43,11.43,0,0,1,0,10.51A9,9,0,0,1,65,139a10.34,10.34,0,0,1-5.14,1.27,9,9,0,0,1-3.88-.82,8.06,8.06,0,0,1-3-2.38v11.72H49.38V120.35H52.8v3.12a7.6,7.6,0,0,1,3-2.47,9.52,9.52,0,0,1,4-.84A10.34,10.34,0,0,1,65,121.43Zm-2,14.86a6.26,6.26,0,0,0,2.38-2.46,7.91,7.91,0,0,0,0-7.25,6.21,6.21,0,0,0-2.38-2.44,6.78,6.78,0,0,0-3.4-.85,6.58,6.58,0,0,0-3.37.87,6.27,6.27,0,0,0-2.38,2.44,7.18,7.18,0,0,0-.88,3.61,7.48,7.48,0,0,0,.86,3.62,6.07,6.07,0,0,0,2.38,2.46,7.06,7.06,0,0,0,6.79,0ZM74,115.88a2.18,2.18,0,0,1-.69-1.63,2.26,2.26,0,0,1,.69-1.66,2.35,2.35,0,0,1,1.73-.69,2.43,2.43,0,0,1,1.73.65,2.15,2.15,0,0,1,.69,1.62,2.28,2.28,0,0,1-.69,1.69,2.34,2.34,0,0,1-1.73.69A2.38,2.38,0,0,1,74,115.88ZM74,120.35h3.57v19.72H74Zm15.51.7a10.08,10.08,0,0,1,4.43-.89v3.46a8.09,8.09,0,0,0-.82,0,6,6,0,0,0-4.56,1.73,6.88,6.88,0,0,0-1.65,4.93v9.83H83.33V120.35h3.42v3.31A6.15,6.15,0,0,1,89.5,121.05Zm21.91,1.12q2.18,2,2.18,6v11.91H110.2v-2.61a5.6,5.6,0,0,1-2.55,2.1,9.59,9.59,0,0,1-3.92.73,8.22,8.22,0,0,1-5.31-1.6,5.5,5.5,0,0,1-.09-8.39q1.9-1.58,6-1.58H110V128a4.52,4.52,0,0,0-1.34-3.53,5.62,5.62,0,0,0-3.94-1.23,10.24,10.24,0,0,0-3.42.58,8.8,8.8,0,0,0-2.83,1.54L97,122.69a10.87,10.87,0,0,1,3.65-1.88,15.35,15.35,0,0,1,4.5-.65A8.91,8.91,0,0,1,111.41,122.17Zm-3.55,14.45A5.12,5.12,0,0,0,110,134v-2.75h-5.5c-3,0-4.54,1-4.54,3.05a2.75,2.75,0,0,0,1.15,2.34,5.29,5.29,0,0,0,3.2.86A6.64,6.64,0,0,0,107.86,136.62Zm22.23,2.29a5.4,5.4,0,0,1-1.93,1,8.33,8.33,0,0,1-2.39.35,6.31,6.31,0,0,1-4.61-1.6,6.12,6.12,0,0,1-1.64-4.58V123.29h-3.34v-2.94h3.34V116h3.58v4.32h5.65v2.94H123.1V134a3.43,3.43,0,0,0,.8,2.45,3,3,0,0,0,2.28.86,4.31,4.31,0,0,0,2.79-.93Zm3.42-23a2.18,2.18,0,0,1-.69-1.63,2.26,2.26,0,0,1,.69-1.66,2.34,2.34,0,0,1,1.73-.69,2.44,2.44,0,0,1,1.73.65,2.15,2.15,0,0,1,.69,1.62,2.28,2.28,0,0,1-.69,1.69,2.54,2.54,0,0,1-3.46,0Zm-.06,4.47H137v19.72h-3.57ZM146.21,139a9.49,9.49,0,0,1-3.66-3.59,10.86,10.86,0,0,1,0-10.38,9.24,9.24,0,0,1,3.66-3.57,11.43,11.43,0,0,1,10.55,0A9.26,9.26,0,0,1,160.4,125a10.79,10.79,0,0,1,0,10.38,9.51,9.51,0,0,1-3.64,3.59,11.35,11.35,0,0,1-10.55,0Zm8.69-2.7a6.15,6.15,0,0,0,2.36-2.46,8.07,8.07,0,0,0,0-7.25,6.1,6.1,0,0,0-2.36-2.44,7.25,7.25,0,0,0-6.81,0,6.14,6.14,0,0,0-2.38,2.44,7.91,7.91,0,0,0,0,7.25,6.2,6.2,0,0,0,2.38,2.46,7.1,7.1,0,0,0,6.81,0Zm27.57-13.95q2.21,2.18,2.21,6.38v11.35h-3.57V129.13a6.06,6.06,0,0,0-1.38-4.32,5.16,5.16,0,0,0-3.94-1.45,6.18,6.18,0,0,0-4.58,1.69,6.65,6.65,0,0,0-1.67,4.86v10.16H166V120.35h3.42v3a7,7,0,0,1,2.92-2.34,10.14,10.14,0,0,1,4.19-.82A8.16,8.16,0,0,1,182.47,122.34Z"/></g></g></g></svg>