<svg xmlns="http://www.w3.org/2000/svg" xmlns:xlink="http://www.w3.org/1999/xlink" width="392.365" height="310" viewBox="0 0 392.365 310"><defs><style>.a{fill:url(#a);}.b{fill:url(#b);}.c{fill:#ff62a0;}.d{opacity:0.2;}.e{fill:#ed4789;}</style><linearGradient id="a" x1="0.673" y1="-0.109" x2="0.673" y2="0.89" gradientUnits="objectBoundingBox"><stop offset="0" stop-color="gray" stop-opacity="0.251"/><stop offset="0.535" stop-color="gray" stop-opacity="0.122"/><stop offset="1" stop-color="gray" stop-opacity="0.102"/></linearGradient><linearGradient id="b" x1="0.845" y1="-0.65" x2="0.845" y2="0.35" xlink:href="#a"/></defs><g transform="translate(0.033 0.022)"><path class="a" d="M285.516,181.179C272.06,153.8,282.825,130,301.663,113.4c26.029-12.11,51.637-6.728,70.475,17.493,12.321-7.19,27.963-8.746,40.83-5.845,9.924-37.424.631-82.333-32.547-106.512A96.729,96.729,0,0,0,245.316,39.724,96.7,96.7,0,1,0,131.362,195.981l156.257,114,41.419-57.4Z" transform="translate(-53.126 0)"/><path class="b" d="M635.975,287.273a48.328,48.328,0,1,0-83.469,48.736v.042l48.778,83.469,83.469-48.778a48.338,48.338,0,0,0-48.778-83.469Z" transform="translate(-316.374 -152.6)"/><path class="c" d="M640.827,292.469a46.106,46.106,0,0,0-79.6,46.549l46.507,79.6,79.6-46.507a46.113,46.113,0,0,0-46.507-79.642Z" transform="translate(-321.605 -156.283)"/><path class="d" d="M803.939,395.846A46.089,46.089,0,0,0,757.6,316.161l45.834,79.979Z" transform="translate(-439.051 -179.639)"/><path class="e" d="M420.147,132.42a51.312,51.312,0,0,0-37.424,5.8,51.655,51.655,0,0,0-89.187,52.142l41,70.139-38.013,52.058-78.044-56.935,6.56-3.827a58.708,58.708,0,0,0-52.52-104.746,55.784,55.784,0,0,0-6.728,3.364,58.679,58.679,0,0,0-56.389-28.8,95.615,95.615,0,0,1,2.145-13.834l.378-1.514c.5-2.018,1.093-3.995,1.724-5.971a2.049,2.049,0,0,1,.168-.463c.294-.883.589-1.766.925-2.607.378-1.009.757-1.976,1.135-2.986.21-.5.42-.967.631-1.472.21-.463.421-.967.631-1.43v-.042c.21-.5.42-.967.673-1.472.042-.042.042-.126.084-.168l.631-1.262c.252-.463.463-.967.715-1.43q.757-1.514,1.64-3.028c.21-.378.421-.757.631-1.093.252-.463.5-.883.757-1.3.126-.21.252-.421.378-.589.673-1.135,1.388-2.271,2.145-3.364.168-.252.336-.5.547-.8.252-.378.5-.715.757-1.051l.883-1.262a92.31,92.31,0,0,1,129.093-20.31A92.469,92.469,0,0,1,420.147,132.42Z" transform="translate(-63.417 -9.395)"/><path class="c" d="M96.989,319.657a52.06,52.06,0,0,0-89.9,52.52l52.52,89.9,89.944-52.52a52.07,52.07,0,0,0-52.562-89.9Z" transform="translate(0 -170.31)"/><path class="d" d="M256.3,82.088l-83.679,92.846a55.784,55.784,0,0,0-6.728,3.364,58.679,58.679,0,0,0-56.389-28.8,95.615,95.615,0,0,1,2.145-13.834l.378-1.514c.5-2.018,1.051-3.995,1.724-5.971a2.049,2.049,0,0,1,.168-.463c.294-.883.589-1.766.925-2.607.378-1.009.757-1.976,1.135-2.986.21-.5.42-.967.631-1.472.21-.463.421-.967.631-1.43v-.042c.21-.5.42-.967.673-1.472.042-.042.042-.126.084-.168l.631-1.262c.252-.463.463-.967.715-1.43q.757-1.514,1.64-3.028c.21-.378.421-.757.631-1.093.252-.463.5-.883.757-1.3.126-.21.252-.421.378-.589.673-1.135,1.388-2.271,2.145-3.364.168-.252.336-.5.547-.8.252-.378.5-.715.757-1.051l.883-1.262a92.254,92.254,0,0,1,129.051-20.31.58.58,0,0,0,.126-.168Z" transform="translate(-63.475 -37.276)"/></g></svg>