<svg xmlns="http://www.w3.org/2000/svg" width="19.48" height="19.48" viewBox="0 0 19.48 19.48"><defs><style>.a{fill:#2a27f4;}</style></defs><g transform="translate(0 -32)"><path class="a" d="M127.309,145.4a4.264,4.264,0,0,0-3.748,6.292l-.761,2.5,2.7-.67a4.208,4.208,0,0,0,1.809.4,4.261,4.261,0,1,0,0-8.523Z" transform="translate(-117.46 -108.469)"/><path class="a" d="M17.393,32H2.087A2.088,2.088,0,0,0,0,34.087V49.393A2.088,2.088,0,0,0,2.087,51.48H17.393a2.088,2.088,0,0,0,2.087-2.087V34.087A2.088,2.088,0,0,0,17.393,32ZM9.914,48.641,2.4,48.65s0-7.457,0-7.588a7.458,7.458,0,1,1,7.523,7.579Z"/></g></svg>