<svg xmlns="http://www.w3.org/2000/svg" width="20.018" height="20.018" viewBox="0 0 20.018 20.018"><defs><style>.a{fill:#2a27f4;}</style></defs><path class="a" d="M17.873,32H2.145A2.145,2.145,0,0,0,0,34.145V49.873a2.145,2.145,0,0,0,2.145,2.145H17.873a2.145,2.145,0,0,0,2.145-2.145V34.145A2.145,2.145,0,0,0,17.873,32ZM7.959,42.282c-4.052-2.941-4.011-2.948-5.1-3.8V37.362A1.072,1.072,0,0,1,3.932,36.29H16.086a1.072,1.072,0,0,1,1.072,1.072v1.125c-1.089.848-1.047.855-5.1,3.8-.469.342-1.4,1.167-2.05,1.157C9.361,43.449,8.429,42.624,7.959,42.282Zm9.2-1.981v6.355a1.072,1.072,0,0,1-1.072,1.072H3.932A1.072,1.072,0,0,1,2.86,46.656V40.3c.624.482,1.489,1.128,4.258,3.137.633.462,1.7,1.436,2.891,1.43s2.281-.985,2.892-1.431C15.669,41.429,16.535,40.783,17.158,40.3Z" transform="translate(0 -32)"/></svg>