<svg xmlns="http://www.w3.org/2000/svg" width="389.692" height="251" viewBox="0 0 389.692 251"><defs><style>.a{fill:#f2f2f2;}.b{fill:#fff;}.c{fill:#3f3d56;}.d{fill:none;stroke:#3f3d56;stroke-miterlimit:10;stroke-width:5px;}.e{fill:#ff62a0;}.f{opacity:0.1;}</style></defs><path class="a" d="M669.611,531.279,667.575,506.1,661.8,532.733s.083,6.731.249,14.085h7.4C669.736,538.384,669.611,531.279,669.611,531.279Z" transform="translate(-386.826 -295.818)"/><path class="a" d="M402.762,537.64a52.378,52.378,0,0,1-1.2-7.146l-.789-8.725c-.332-2.368-.706-4.487-1.039-6.357-2.576-13.213-5.235-13.711-5.235-13.711a2.078,2.078,0,0,0-.332.291,6.01,6.01,0,0,0-.873.914c-4.238,5.4-7.1,19.362-8.642,28.628-.831,5.111-1.246,8.809-1.246,8.809s.374,1.579.914,3.823h19.279A31.876,31.876,0,0,0,402.762,537.64Z" transform="translate(-224.1 -293.247)"/><path class="a" d="M330.816,0H58.917A59.085,59.085,0,0,0,0,58.917V192.041a59.085,59.085,0,0,0,58.917,58.917h86.173l-1.122-5.235s-2.867-18.448,0-32.866a117.548,117.548,0,0,0,1.911-13.67,83.608,83.608,0,0,1,2.535-15.373l.249-.873c-.706-.208-1.039-.332-.873-.457.457-.249.706-1.08.831-2.077a99.69,99.69,0,0,1,4.321-19.985c-2.908,1.828-4.82,1.994-6.066,1.288-4.4-1.2-2.576-11.135-2.576-11.135s2.742-21.481,3.656-29.251c.54-4.487,7.23-7.022,13.171-8.393a6.572,6.572,0,0,0,.789-4.113.77.77,0,0,0-.083-.291c-.748-1.662-2.285-3.075-2.867-4.778a5.82,5.82,0,0,1-.54-1.5c-.5-2.992,2.285-5.568,3.075-8.435a7.123,7.123,0,0,1-1.787-2.867c-1.2-2.493-.623-5.526,3.324-7.853.789-.457,1.62-.873,2.451-1.288a3.1,3.1,0,0,1,1-.457c2.825-1.288,5.651-2.493,7.313-4.986a4.587,4.587,0,0,1,1.5-1.7,4.219,4.219,0,0,1,1.039-.249c5.4-.415,10.346,4.238,15.706,3.573,1.62-.208,3.282-.873,4.861-.374a5.82,5.82,0,0,1,2.535,1.953,19.928,19.928,0,0,1,4.321,16.412c-.665,3.573-2.327,7.23-1.163,10.637.873,2.493,3.241,4.57,3.241,7.188,0,2.2-1.537,3.947-3.033,5.651.208.208.374.415.582.623,3.656,4.2,2.992,7.728,2.451,9.182h0l-1.87,18.2-1.579,12.216s-.374,5.027-4.113,6.108a6.123,6.123,0,0,1-4.363.083c-1.2-.374-2.2-.748-3.075-1.08a40.725,40.725,0,0,1,1.994,13.047c-.332,7.188.623,7.811.623,7.811-.042.083-.125.125-.208.208a29.433,29.433,0,0,1-.125,25.47c-4.446,9.681.332,32.242.332,32.242s.332,3.532.5,7.437h68.266c-1.08-10.346-2.41-20.733-2.95-21.9-.956-1.911.249-33.364.706-44.333a2.382,2.382,0,0,1-.582-.166c-.332-.083-.623-.208-.873-.291a7.518,7.518,0,0,0,.166,1.662c.415.956-.582,1.62-2.2,2.077.956,4.654,2.119,13.3-1.87,14.958-4.113,1.7-4.2-8.767-3.947-14.21-.5,0-1.039.042-1.537.042-4.9,0,1.454-57.006,1.163-60.745-.291-3.781,2.327-19.113,2.327-19.113s.873-3.2,3.49-3.781,15.041-7.811,15.041-7.811a8.665,8.665,0,0,1,2.618-2.451v-.415a10.109,10.109,0,0,1,1.039-.831c-.166-2.535-.5-5.775-.748-7.977a9.976,9.976,0,0,1-2.7-5.194,15.487,15.487,0,0,1-1.5-1.33,8,8,0,0,1-1.953-4.944,15.444,15.444,0,0,1,.789-5.318,6.99,6.99,0,0,1,.665-1.62,6.391,6.391,0,0,1,1.5-1.5c.166-.125.374-.249.54-.374a5.4,5.4,0,0,1,1.62-1.87c1.5-.956,3.365-.873,5.152-.831h.083l1-.125a1.025,1.025,0,0,0,.789-.789c.249.249.5.457.706.706h1.08a8.169,8.169,0,0,1,.54-1.039l.374,1.122a9.7,9.7,0,0,1,1.08.166c.291-.208.582-.457.831-.665.083-.042.291.665.415.914a3.06,3.06,0,0,1,.582.166c.291,0,.623-.083.831-.083a5.491,5.491,0,0,1,2.908.706,5.607,5.607,0,0,1,1.828,2.119A14.324,14.324,0,0,1,293.3,71.88a6.928,6.928,0,0,1,1.163,2.576c.457,2.908-2.285,5.318-2.825,8.227-.291,1.537.042,3.241-.748,4.612a4.194,4.194,0,0,1-1.33,1.371,8.32,8.32,0,0,1-1,.665,24.269,24.269,0,0,0,.582,5.194l.374,1.413c.582.415,1.2.914,1.87,1.454,0,0,8.1,3.49,11.011,5.194,2.535,1.537,5.318,1.7,6.149,3.7l.208.042s2.908,32.118,3.2,37.6,3.781,39.347,3.2,40.8c-.208.54-1.579,1.163-3.241,1.62.956,4.4,2.493,13.961-1.7,15.706-4.28,1.787-4.155-9.639-3.906-14.875-.582-.042-.956-.208-1-.457s-.208-1.288-.416-2.908c-.374.042-.748.125-1.122.166-.083,0-.166.042-.249.042,3.656,11.551-4.446,42.131-6.025,48.114-.831,3.116-1.7,10.886-2.493,18.7h35.774a59.085,59.085,0,0,0,58.917-58.917v-133A59.023,59.023,0,0,0,330.816,0Z"/><ellipse class="b" cx="39.472" cy="35.899" rx="39.472" ry="35.899" transform="translate(47.782 34.32)"/><path class="b" d="M344.873,401.588h0s13.3-9.141,13.3-13.3,9.141-31.162,14.127-19.113-7.063,29.085-7.063,29.085-13.3,24.1-21.19,28.254a18.95,18.95,0,0,1-14.542,1.662V416.961l7.6-11.26A9.376,9.376,0,0,1,344.873,401.588Z" transform="translate(-192.595 -213.992)"/><path class="b" d="M275.5,298.3s19.944,6.316,22.021,9.224,2.908-2.077,8.725,17.035a199.764,199.764,0,0,1,7.271,37.6s-14.335,4.778-12.673,23.475-2.493,39.056-2.493,39.056h-5.194l-11.426-35.317,13.711-53.6S275.957,302.829,275.5,298.3Z" transform="translate(-161.031 -174.358)"/><circle class="b" cx="24.93" cy="24.93" r="24.93" transform="translate(82.891 56.715)"/><path class="b" d="M227.556,227.865s-7.063,23.268-.831,26.592,13.3,18.282,13.3,18.282l-10.8,12.049h-24.93L193.07,272.323l-4.57-21.19,6.232-4.986s6.648-16.62,6.648-25.345S227.556,227.865,227.556,227.865Z" transform="translate(-110.179 -127.523)"/><path class="b" d="M215.606,292.11s-4.986-1.246-2.077,3.739,5.817,14.127-4.57,14.542-20.775-4.986-24.1-16.2-4.57-10.387-5.817-9.972S164.5,298.343,164.5,298.343l4.57,25.761,1.662,92.24h60.662s2.493-26.592-1.662-32.824,3.739-22.021,3.739-22.021,7.063-10.8,1.662-31.578S217.683,292.11,215.606,292.11Z" transform="translate(-96.151 -166.008)"/><path class="b" d="M149.8,283.314a10.935,10.935,0,0,0-11.634,2.077c-5.4,4.986-17.451,9.141-17.451,11.634s10.387,73.542,3.324,86.007S109.5,415.441,109.5,415.441h34.652s5.651-20.775,11.468-31.993,5.4-42.8,3.739-52.352S149.8,283.314,149.8,283.314Z" transform="translate(-64.003 -165.106)"/><path class="b" d="M118.5,541.9l2.036,22.021h22.437L140.937,536.5Z" transform="translate(-69.264 -313.587)"/><path class="c" d="M364.5,473.571l5.4,33.655H489.979L500.367,439.5Z" transform="translate(-213.052 -256.89)"/><path class="c" d="M485.648,428.5l1.246,6.232L331.5,472.127v-5.4Z" transform="translate(-193.764 -250.461)"/><path class="c" d="M543.331,453.746l-.831,7.063,9.141-1.246L547.9,452.5Z" transform="translate(-317.094 -264.489)"/><path class="d" d="M423.5,283.461s18.282-1.246,23.268,12.88,16.62,39.472,21.19,43.211,9.556,13.711,8.725,17.035" transform="translate(-247.538 -165.668)"/><path class="e" d="M415.387,278.032c0,1.953-2.077,3.532-5.4,3.532S405,279.985,405,278.032s1.662-3.532,4.986-3.532S415.387,276.079,415.387,278.032Z" transform="translate(-236.725 -160.447)"/><path class="b" d="M308.947,356.76s3.116-13.088-2.7-32.2-6.648-14.127-8.725-17.035S275.5,298.3,275.5,298.3c.125,1.5,2.327,6.025,5.235,11.468a22.86,22.86,0,0,0-2.327-5.609c-2.908-4.986,2.077-3.739,2.077-3.739,2.077,0,14.127,17.035,19.528,37.81s-1.662,31.578-1.662,31.578Z" transform="translate(-161.031 -174.358)"/><path class="b" d="M276,298s2.451,9.349,4.57,10.678,14.5,14.251,14.5,14.251l-1.62-10.387L286.8,302.57l-1.787-1.288Z" transform="translate(-161.324 -174.183)"/><path class="f" d="M122.463,336.9l.582-21.4s-13.67,5.817-14.916,30.747,2.077,71.88,6.648,72.3,26.176-4.57,26.176-4.57,3.324-60.247,2.077-68.141S122.463,336.9,122.463,336.9Z" transform="translate(-63.047 -184.412)"/><path class="b" d="M119.41,315.5h-3.366s-13.67,5.817-14.916,30.747,2.077,71.88,6.648,72.3,26.176-4.57,26.176-4.57,3.324-60.247,2.077-68.141S119.41,315.5,119.41,315.5Z" transform="translate(-58.956 -184.412)"/><ellipse class="b" cx="26" cy="29" rx="26" ry="29" transform="translate(51.997 46)"/><ellipse class="b" cx="5" cy="7.5" rx="5" ry="7.5" transform="translate(91.997 83)"/><ellipse class="b" cx="21.5" cy="21" rx="21.5" ry="21" transform="translate(30.997 25)"/><path class="b" d="M89.067,128.169A21.169,21.169,0,0,1,58.362,111.3a21.184,21.184,0,1,0,41.882,6.4,21.751,21.751,0,0,0,.166-5.194A21.267,21.267,0,0,1,89.067,128.169Z" transform="translate(-33.972 -65.055)"/><path class="b" d="M84.47,72.464A21.189,21.189,0,0,1,95.149,39.1a21.188,21.188,0,0,0,1.787,42.339,21.925,21.925,0,0,0,5.152-.873A21.015,21.015,0,0,1,84.47,72.464Z" transform="translate(-43.752 -22.854)"/><ellipse class="b" cx="14.5" cy="11" rx="14.5" ry="11" transform="translate(94.997 51)"/></svg>