<svg xmlns="http://www.w3.org/2000/svg" width="34.961" height="24.054" viewBox="0 0 34.961 24.054"><defs><style>.a{fill:#4f434d;}</style></defs><path class="a" d="M34.75,75.112A19.421,19.421,0,0,0,17.481,64,19.424,19.424,0,0,0,.212,75.113a2.084,2.084,0,0,0,0,1.828A19.421,19.421,0,0,0,17.481,88.054,19.424,19.424,0,0,0,34.75,76.941,2.084,2.084,0,0,0,34.75,75.112ZM17.481,85.047a9.025,9.025,0,0,1,0-18.04,9.025,9.025,0,0,1,0,18.04Zm0-15.034a5.619,5.619,0,0,0-1.536.237,3.069,3.069,0,0,1-.286,3.9,2.838,2.838,0,0,1-3.775.295A6.1,6.1,0,0,0,14.256,81a5.668,5.668,0,0,0,6.776-.221A6.114,6.114,0,0,0,23,74.079a5.83,5.83,0,0,0-5.517-4.066Z" transform="translate(-0.001 -64)"/></svg>