<svg xmlns="http://www.w3.org/2000/svg" width="19.285" height="19.285" viewBox="0 0 19.285 19.285"><defs><style>.a{fill:#2a27f4;}</style></defs><path class="a" d="M17.218,32H2.066A2.067,2.067,0,0,0,0,34.066V49.218a2.067,2.067,0,0,0,2.066,2.066H17.218a2.067,2.067,0,0,0,2.066-2.066V34.066A2.067,2.067,0,0,0,17.218,32ZM11.937,48.517c-.362.065-.5-.159-.5-.344,0-.232.009-1.421.009-2.38a1.677,1.677,0,0,0-.486-1.322c1.593-.176,3.272-.4,3.272-3.147a2.21,2.21,0,0,0-.736-1.679,2.692,2.692,0,0,0-.073-1.937c-.6-.185-1.967.771-1.967.771a6.772,6.772,0,0,0-3.581,0s-1.369-.956-1.967-.771a2.671,2.671,0,0,0-.073,1.937,2.162,2.162,0,0,0-.672,1.679c0,2.738,1.606,2.97,3.2,3.147a1.56,1.56,0,0,0-.456.96,1.51,1.51,0,0,1-2.079-.6,1.5,1.5,0,0,0-1.1-.736c-.7-.009-.047.439-.047.439.465.215.792,1.042.792,1.042.418,1.278,2.415.848,2.415.848,0,.6.009,1.571.009,1.748s-.129.409-.5.344A7.142,7.142,0,0,1,2.574,41.7a6.831,6.831,0,0,1,6.973-6.952A6.984,6.984,0,0,1,16.7,41.7,7.076,7.076,0,0,1,11.937,48.517Zm-4.223-2.63c-.082.017-.159-.017-.168-.073s.047-.121.129-.138.159.026.168.082-.043.112-.129.129ZM7.3,45.848c0,.056-.065.1-.151.1s-.159-.039-.159-.1.065-.1.151-.1S7.3,45.783,7.3,45.848Zm-.59-.047c-.017.056-.1.082-.176.056s-.138-.082-.121-.138.1-.082.176-.065S6.737,45.745,6.715,45.8Zm-.529-.232c-.039.047-.121.039-.185-.026s-.082-.138-.039-.176.121-.039.185.026S6.224,45.534,6.186,45.568Zm-.392-.392c-.039.026-.112,0-.159-.065s-.047-.138,0-.168.121-.009.159.056A.126.126,0,0,1,5.794,45.176Zm-.28-.418c-.039.039-.1.017-.151-.026s-.056-.121-.017-.151.1-.017.151.026S5.553,44.729,5.514,44.759Zm-.288-.319a.081.081,0,0,1-.121.017c-.056-.026-.082-.073-.065-.112a.1.1,0,0,1,.121-.017C5.217,44.359,5.243,44.406,5.226,44.44Z" transform="translate(0 -32)"/></svg>