<svg xmlns="http://www.w3.org/2000/svg" width="88.126" height="71" viewBox="0 0 88.126 71"><defs><style>.a{fill:#24588d;}.b{fill:#94a5c4;}.c{fill:#231f20;}</style></defs><g transform="translate(17.36)"><path class="a" d="M131.928,47.1H99.68V0Z" transform="translate(-69.474)"/><path class="b" d="M63.536,37.588H36.38L63.536,0Z" transform="translate(-36.38)"/></g><path class="c" d="M9.8,122.235H3.2l-1.37,3.106H0L6.084,111.9h.84l6.108,13.442H11.166Zm-.62-1.432L6.5,114.715l-2.682,6.1Zm6.2,4.323a4.863,4.863,0,0,1-1.67-.792l.711-1.346a5.072,5.072,0,0,0,1.508.706,6.1,6.1,0,0,0,1.794.267q2.238,0,2.238-1.279a.83.83,0,0,0-.3-.673,1.909,1.909,0,0,0-.754-.363q-.477-.115-1.288-.258a12.922,12.922,0,0,1-1.856-.41,2.863,2.863,0,0,1-1.236-.783,2.176,2.176,0,0,1-.511-1.541,2.41,2.41,0,0,1,1.064-2.052,4.772,4.772,0,0,1,2.863-.773,7.685,7.685,0,0,1,1.879.233,4.949,4.949,0,0,1,1.552.654l-.73,1.346a4.9,4.9,0,0,0-2.715-.744,3.121,3.121,0,0,0-1.651.358,1.069,1.069,0,0,0-.568.954.888.888,0,0,0,.32.725,1.962,1.962,0,0,0,.792.391c.31.086.754.177,1.322.286a14.315,14.315,0,0,1,1.837.415,2.772,2.772,0,0,1,1.2.754,2.124,2.124,0,0,1,.477,1.494,2.352,2.352,0,0,1-1.093,2.033,5.163,5.163,0,0,1-2.973.754,7.964,7.964,0,0,1-2.2-.348Zm15.633-8.68a4.357,4.357,0,0,1,1.68,1.7,5.454,5.454,0,0,1,0,5.015,4.3,4.3,0,0,1-1.68,1.665,4.934,4.934,0,0,1-2.453.606,4.3,4.3,0,0,1-1.851-.391,3.846,3.846,0,0,1-1.432-1.136V129.5H23.563V115.932H25.2v1.489a3.627,3.627,0,0,1,1.432-1.179,4.543,4.543,0,0,1,1.909-.4A4.934,4.934,0,0,1,31.017,116.447Zm-.954,7.091a2.987,2.987,0,0,0,1.136-1.174,3.775,3.775,0,0,0,0-3.46,2.963,2.963,0,0,0-1.136-1.164,3.235,3.235,0,0,0-1.622-.406,3.14,3.14,0,0,0-1.608.415,2.992,2.992,0,0,0-1.136,1.164,3.426,3.426,0,0,0-.42,1.723,3.569,3.569,0,0,0,.41,1.727,2.9,2.9,0,0,0,1.136,1.174A3.369,3.369,0,0,0,30.063,123.538Zm5.249-9.739a1.04,1.04,0,0,1-.329-.778,1.078,1.078,0,0,1,.329-.792,1.121,1.121,0,0,1,.826-.329,1.16,1.16,0,0,1,.826.31,1.026,1.026,0,0,1,.329.773,1.088,1.088,0,0,1-.329.806,1.117,1.117,0,0,1-.826.329,1.136,1.136,0,0,1-.826-.32Zm0,2.133h1.7v9.41h-1.7Zm7.4.334a4.81,4.81,0,0,1,2.114-.425v1.651a3.865,3.865,0,0,0-.391,0,2.863,2.863,0,0,0-2.176.826,3.283,3.283,0,0,0-.787,2.353v4.691H39.764v-9.429H41.4v1.579a2.935,2.935,0,0,1,1.312-1.245Zm10.455.534a3.7,3.7,0,0,1,1.04,2.863v5.683H52.586V124.1a2.672,2.672,0,0,1-1.217,1,4.576,4.576,0,0,1-1.871.348,3.922,3.922,0,0,1-2.534-.764,2.625,2.625,0,0,1-.043-4,4.443,4.443,0,0,1,2.863-.754H52.49v-.348a2.157,2.157,0,0,0-.639-1.684,2.682,2.682,0,0,0-1.88-.587,4.887,4.887,0,0,0-1.632.277,4.2,4.2,0,0,0-1.35.735l-.7-1.274a5.187,5.187,0,0,1,1.742-.9,7.326,7.326,0,0,1,2.147-.31,4.252,4.252,0,0,1,2.987.959Zm-1.694,6.9a2.443,2.443,0,0,0,1.016-1.25v-1.312H49.866c-1.432,0-2.166.477-2.166,1.455a1.312,1.312,0,0,0,.549,1.117,2.524,2.524,0,0,0,1.527.41,3.168,3.168,0,0,0,1.694-.42Zm10.608,1.093a2.577,2.577,0,0,1-.921.477,3.975,3.975,0,0,1-1.14.167,3.011,3.011,0,0,1-2.2-.763,2.92,2.92,0,0,1-.783-2.185v-5.149H55.444v-1.4h1.594v-2.076h1.708v2.061h2.7v1.4h-2.7v5.125a1.637,1.637,0,0,0,.382,1.169,1.432,1.432,0,0,0,1.088.41,2.057,2.057,0,0,0,1.331-.444Zm1.632-10.975a1.04,1.04,0,0,1-.329-.778,1.078,1.078,0,0,1,.329-.792,1.117,1.117,0,0,1,.826-.329,1.164,1.164,0,0,1,.826.31,1.026,1.026,0,0,1,.329.773,1.088,1.088,0,0,1-.329.806,1.212,1.212,0,0,1-1.651,0Zm-.029,2.133h1.689v9.41h-1.7Zm6.084,8.885a4.528,4.528,0,0,1-1.746-1.713,5.182,5.182,0,0,1,0-4.953,4.409,4.409,0,0,1,1.746-1.7,5.454,5.454,0,0,1,5.034,0,4.419,4.419,0,0,1,1.737,1.689,5.149,5.149,0,0,1,0,4.953,4.538,4.538,0,0,1-1.737,1.713,5.416,5.416,0,0,1-5.034,0Zm4.147-1.288a2.935,2.935,0,0,0,1.126-1.174,3.851,3.851,0,0,0,0-3.46,2.911,2.911,0,0,0-1.126-1.164,3.46,3.46,0,0,0-3.25,0,2.93,2.93,0,0,0-1.136,1.164,3.775,3.775,0,0,0,0,3.46,2.959,2.959,0,0,0,1.136,1.174,3.388,3.388,0,0,0,3.25,0Zm13.156-6.657a4.092,4.092,0,0,1,1.055,3.044v5.416h-1.7v-5.225a2.892,2.892,0,0,0-.659-2.061,2.462,2.462,0,0,0-1.88-.692,2.949,2.949,0,0,0-2.185.806,3.173,3.173,0,0,0-.8,2.319v4.848H79.212v-9.41h1.632v1.432a3.34,3.34,0,0,1,1.393-1.117,4.839,4.839,0,0,1,2-.391,3.894,3.894,0,0,1,2.834,1.026Z" transform="translate(0 -58.503)"/></svg>