<svg xmlns="http://www.w3.org/2000/svg" width="35.502" height="23.668" viewBox="0 0 35.502 23.668"><defs><style>.a{fill:#4f434d;}</style></defs><path class="a" d="M34.023,64H5.424a1.479,1.479,0,0,0-1.479,1.479v.493H1.479A1.479,1.479,0,0,0,0,67.452V84.217a3.452,3.452,0,0,0,3.452,3.452H32.544A2.958,2.958,0,0,0,35.5,84.71V65.479A1.479,1.479,0,0,0,34.023,64ZM3.452,84.71a.493.493,0,0,1-.493-.493V68.931h.986V84.217A.493.493,0,0,1,3.452,84.71ZM18,83.723H8.629a.74.74,0,0,1-.74-.74v-.493a.74.74,0,0,1,.74-.74H18a.74.74,0,0,1,.74.74v.493A.74.74,0,0,1,18,83.723Zm12.82,0H21.449a.74.74,0,0,1-.74-.74v-.493a.74.74,0,0,1,.74-.74h9.369a.74.74,0,0,1,.74.74v.493A.74.74,0,0,1,30.818,83.723ZM18,77.806H8.629a.74.74,0,0,1-.74-.74v-.493a.74.74,0,0,1,.74-.74H18a.74.74,0,0,1,.74.74v.493A.74.74,0,0,1,18,77.806Zm12.82,0H21.449a.74.74,0,0,1-.74-.74v-.493a.74.74,0,0,1,.74-.74h9.369a.74.74,0,0,1,.74.74v.493A.74.74,0,0,1,30.818,77.806Zm0-5.917H8.629a.74.74,0,0,1-.74-.74V68.684a.74.74,0,0,1,.74-.74H30.818a.74.74,0,0,1,.74.74V71.15A.74.74,0,0,1,30.818,71.889Z" transform="translate(0 -64)"/></svg>