<svg xmlns="http://www.w3.org/2000/svg" width="30.76" height="30.76" viewBox="0 0 30.76 30.76"><defs><style>.a{fill:#4f434d;}</style></defs><path class="a" d="M23.38,8A15.38,15.38,0,1,0,38.76,23.38,15.382,15.382,0,0,0,23.38,8Zm0,27.783a12.4,12.4,0,1,1,12.4-12.4A12.4,12.4,0,0,1,23.38,35.783Zm6.651-15.826c0,4.158-4.491,4.222-4.491,5.759v.393a.744.744,0,0,1-.744.744H21.964a.744.744,0,0,1-.744-.744v-.537c0-2.217,1.681-3.1,2.951-3.815,1.089-.611,1.757-1.026,1.757-1.834,0-1.07-1.364-1.779-2.467-1.779-1.438,0-2.1.681-3.035,1.859a.745.745,0,0,1-1.034.132l-1.726-1.308A.746.746,0,0,1,17.5,17.81a6.971,6.971,0,0,1,6.237-3.36C26.782,14.45,30.031,16.825,30.031,19.957ZM25.984,30.325a2.6,2.6,0,1,1-2.6-2.6A2.608,2.608,0,0,1,25.984,30.325Z" transform="translate(-8 -8)"/></svg>