<svg xmlns="http://www.w3.org/2000/svg" width="19.458" height="19.458" viewBox="0 0 19.458 19.458"><defs><style>.a{fill:#2a27f4;}</style></defs><path class="a" d="M17.373,32H2.085A2.085,2.085,0,0,0,0,34.085V49.373a2.085,2.085,0,0,0,2.085,2.085H17.373a2.085,2.085,0,0,0,2.085-2.085V34.085A2.085,2.085,0,0,0,17.373,32ZM4.865,48.678a2.085,2.085,0,1,1,2.085-2.085A2.085,2.085,0,0,1,4.865,48.678Zm6.842,0H10.215a.5.5,0,0,1-.5-.462A6.951,6.951,0,0,0,3.242,41.74a.5.5,0,0,1-.462-.5V39.751a.5.5,0,0,1,.521-.5,9.433,9.433,0,0,1,8.9,8.9.5.5,0,0,1-.5.521Zm4.475,0H14.69a.5.5,0,0,1-.5-.479A11.419,11.419,0,0,0,3.259,37.264a.5.5,0,0,1-.479-.5V35.277a.5.5,0,0,1,.512-.5A13.908,13.908,0,0,1,16.678,48.166a.5.5,0,0,1-.5.512Z" transform="translate(0 -32)"/></svg>