<svg xmlns="http://www.w3.org/2000/svg" width="19.458" height="19.458" viewBox="0 0 19.458 19.458"><defs><style>.a{fill:#2a27f4;}</style></defs><path class="a" d="M17.373,31.9H2.085A2.085,2.085,0,0,0,0,33.985V49.273a2.085,2.085,0,0,0,2.085,2.085H17.373a2.085,2.085,0,0,0,2.085-2.085V33.985A2.085,2.085,0,0,0,17.373,31.9ZM10,35.766a1.568,1.568,0,1,1,3.136,0V39.7A1.568,1.568,0,0,1,10,39.7V35.766ZM5.268,43.64A1.57,1.57,0,1,1,3.7,42.072H5.264V43.64ZM9.2,47.571a1.568,1.568,0,0,1-3.136,0V43.64a1.568,1.568,0,1,1,3.136,0Zm-1.568-6.3H3.7a1.568,1.568,0,0,1,0-3.136H7.631a1.568,1.568,0,0,1,0,3.136ZM9.2,37.338H7.631A1.568,1.568,0,1,1,9.2,35.77Zm2.376,11.805a1.573,1.573,0,0,1-1.568-1.568V46.007h1.568a1.568,1.568,0,0,1,0,3.136Zm3.931-3.931H11.575a1.568,1.568,0,1,1,0-3.136h3.931a1.568,1.568,0,1,1,0,3.136Zm0-3.944H13.938V39.7a1.568,1.568,0,1,1,1.568,1.568Z" transform="translate(0 -31.9)"/></svg>