<svg xmlns="http://www.w3.org/2000/svg" width="471" height="349.875" viewBox="0 0 471 349.875"><defs><style>.a{fill:#f2f2f2;}.b{fill:#3f3d56;}.c{fill:none;stroke:#ea4c85;stroke-miterlimit:10;stroke-width:2px;opacity:0.8;}.d{fill:#ff62a0;}</style></defs><g transform="translate(0.008 0.031)"><path class="a" d="M433.92,85.045c-53.48-74.416-166.4-104.6-277.448-72.094C97.748,30.124,41.146,64.55,13.085,131.24-37.073,250.409,68.246,288.437,137.1,300.567a373.285,373.285,0,0,1,93.31,29.142c51.559,24.138,142.787,45.514,211.6-55C491.883,201.853,469.506,134.562,433.92,85.045Z" transform="translate(0 0)"/><path class="b" d="M164.752,234.74a14.5,14.5,0,0,0-.881-3.443,1.482,1.482,0,0,0-.8-.961,1.362,1.362,0,0,0-.8,0l-4.043.6a1.552,1.552,0,0,0-.921.36c-.52.56,0,1.441-.04,2.2a2.076,2.076,0,0,1-1.6,1.8,6.143,6.143,0,0,1-2.562-.04l-5.644-.881a9.2,9.2,0,0,0,4.283-2.842c.761-.881,1.121-2.522.08-2.922a2.611,2.611,0,0,0-.961-.08c-2.562,0-4.563-2.122-6.965-3a7.657,7.657,0,0,0-8.686,2.6l3,.16a1.406,1.406,0,0,1,.8.2c.641.56-.16,1.6-.08,2.442.12,1.121,1.6,1.321,2.682,1.441s2.482,1,1.961,1.961c-5.524,1.921-11.168-3.723-17.013-3.042a30.593,30.593,0,0,0-4.283,1.121c-8.807,2.242-17.853-3.723-26.86-2.442a29.282,29.282,0,0,0-5.844,1.561,8.144,8.144,0,0,0-3.4,1.761,2.662,2.662,0,0,0-.4,3.483,19.961,19.961,0,0,1-6.885-.641,3.889,3.889,0,0,1,2,3.4,42.34,42.34,0,0,0-10.488,3.2,19.344,19.344,0,0,0,2.162,2.882L68,248.59a2.579,2.579,0,0,1,1.441,3.8c1.6-.721,2.6-2.562,4.323-2.922a5.712,5.712,0,0,1,3.323.64,5.2,5.2,0,0,0,3.363.52c1.121-.32,1.921-1.761,1.2-2.682a59.468,59.468,0,0,1,14.531-2.282,2.011,2.011,0,0,1,1.081.2c.64.44.48,1.4.44,2.162s.56,1.8,1.281,1.441c-.8.721-.12,2.042.68,2.8s1.721,1.761,1.241,2.762c-.12.24-.32.44-.44.721a1.844,1.844,0,0,0,.881,2.122,6.761,6.761,0,0,1,1.961,1.561c.48.721.24,1.921-.56,2l-2.362-3a6.279,6.279,0,0,0-1.6,3,6.346,6.346,0,0,1,.8,8.647,24.219,24.219,0,0,1-3.923,3c-1.321,1-2.562,2.362-2.562,4,0,2.842-.24,5.484.841,8.126a121.279,121.279,0,0,0,6.805,14.171c.681,1.2,1.561,2.522,2.922,2.722-1.721-4.2-3.282-8.446-4.643-12.77a3.037,3.037,0,0,1,2.482.8,4.889,4.889,0,0,1,.48,2.162,5.913,5.913,0,0,0,.841,2l8.206,14.651c.681,1.2,1.481,2.522,2.762,3a13.454,13.454,0,0,1,2.562.721c.6.36,1,1,1.6,1.321,1.721.961,4.123-.881,5.764.28.48.32.761.841,1.2,1.2,1.481,1.281,3.963.44,5.684,1.4a6.854,6.854,0,0,1,2.282,3c1.481,2.842,3.883,5.6,7.085,5.8a18.648,18.648,0,0,1,3,.12c.961.24,1.921,1.081,1.8,2.082-.28,1.681.56,3.563.36,5.284-.4,3.122-4.8,4.483-5.2,7.566a16.957,16.957,0,0,1-.12,2.042c-.2.8-.8,1.481-1.041,2.282-.4,1.521.68,3.082,1.881,4.123s2.642,1.921,3.322,3.363c.681,1.521.36,3.322.6,5,.48,3.643,3.643,6.325,6.885,8.086a6.969,6.969,0,0,1,2.682,1.961c.841,1.2.761,2.8,1.041,4.2.681,3.523,3.643,6.4,3.723,10.008.04,2.562-1.361,4.844-2.2,7.245a16.877,16.877,0,0,0,1.4,14.011,21.73,21.73,0,0,1,1.841,3.242c.8,2.082.52,4.4,1.281,6.485.961,2.762,3.643,5.044,3.4,7.966,1.2,2.522,3.883,3.763,6.6,4.523l4.844,1.361a6.252,6.252,0,0,0,2.842.32,2.082,2.082,0,0,0,1.8-1.921,17.584,17.584,0,0,1-6.765-2.562c-1.962-1.441-3.282-4-2.562-6.325.36-1.081,1.081-2.322.36-3.2-.4-.52-1.121-.64-1.561-1.121a2.473,2.473,0,0,1,.04-2.8,10,10,0,0,0,1.441-2.642,2.755,2.755,0,0,0-1.281-2.842,6.625,6.625,0,0,0,2.4-1.521,2.346,2.346,0,0,0,.44-2.642c1.481.2,3.2.28,4.163-.841a3.674,3.674,0,0,0,.4-3.362,14.432,14.432,0,0,1-.841-3.443,61.7,61.7,0,0,0,10.168-.36,6.633,6.633,0,0,0-3.082-3.883c1.521-.24,2.922-2.082,3.4-3.563a9.426,9.426,0,0,0,.08-4.6,2.443,2.443,0,0,1-.04-1.2c.16-.56.721-.881,1.2-1.161l7.566-4.363a4.435,4.435,0,0,0,1.2-.881,3.571,3.571,0,0,0,.28-3.483,18.507,18.507,0,0,1-1.2-3.443c-.48-3.643,3.4-6.245,4.724-9.647a14.963,14.963,0,0,0,.721-4.243c.12-1.521.12-3.323-1.081-4.323-1.121-.961-2.922-.72-4.083-1.641-1.081-.8-1.481-2.4-2.642-3.042-1.081-.6-2.442-.2-3.643-.48-2.122-.48-3.443-2.922-5.6-3.162-1.2-.12-2.6.48-3.6-.24-.881-.64-.921-1.881-1.081-2.962a8.171,8.171,0,0,0-6.645-6.645c-1.241-.2-2.6-.12-3.683-.8s-1.561-2-2.442-2.962c-1.361-1.561-3.523-2.122-5.524-2.6l-8.206-1.921c-1.441-.36-3.322-.52-4.123.761a5.18,5.18,0,0,0-.48,1.521,4.76,4.76,0,0,1-4.443,3.362,5.239,5.239,0,0,0-3.122-2.4,17.8,17.8,0,0,1-2.522-.6,3.538,3.538,0,0,1-1.641-4.724c.04-.04.04-.12.08-.16a4.375,4.375,0,0,0-.761-5.284,7.215,7.215,0,0,0-5.284-1.441c-.48-1.081.32-2.282,1.2-3.042s1.961-1.561,2.162-2.722c.32-1.841-2.042-3.2-3.8-2.682s-2.882,2.282-3.643,3.963a11.713,11.713,0,0,1-1.481,2.8,3,3,0,0,1-2.8,1.161c-1.441-.36-2-2.122-2.322-3.563a21.588,21.588,0,0,1-.761-5.964,7.972,7.972,0,0,1,2.242-5.444c2.4-2.242,6.125-2,9.407-1.641a2.4,2.4,0,0,1,.24-3.162,3.566,3.566,0,0,1,3.242-.8,4.26,4.26,0,0,1,2.522,1.521c.921,1.121,1.2,2.642,1.881,3.963s2.282,2.362,3.563,1.681c1.121-.6,1.281-2.162,1-3.363s-.881-2.442-.761-3.683c.2-2.4,2.682-3.843,4.884-4.844s4.724-2.322,5.084-4.724a3.934,3.934,0,0,1,.28-1.361,2.458,2.458,0,0,1,1-.921c6.4-4.243,12.97-8.526,20.3-10.848.4-.12.44,0,.8-.08.56-.32.2-1.2-.32-1.521s-1.2-.6-1.361-1.241a4.246,4.246,0,0,1,.24-1.361,1.691,1.691,0,0,0-2.2-1.721c-.6-.8.56-1.681,1.521-1.961a42.29,42.29,0,0,1,8.686-1.4,1.768,1.768,0,0,1,1,.16,1.171,1.171,0,0,1,.08,1.6,9.417,9.417,0,0,1-1.321,1.2,3.628,3.628,0,0,0-.921,3.643c1.521.761,3.2,1.561,4.884,1.321s3.2-2.162,2.4-3.683c-.761-1.4-2.962-1.721-3.363-3.282-.44-1.8,2.122-3.443,1.561-5.2-.24-.761-1.041-1.241-1.641-1.8a4.909,4.909,0,0,1-1.081-5.444,6.123,6.123,0,0,1-5.4-1.681c-1.281-1.321-2.322-3.363-4.163-3.323-1.681.04-3.122,2.042-4.724,1.441-.4-.16-.8-.44-1.161-.28a1.062,1.062,0,0,0-.44.721c-.4,1.921.28,4.083-.761,5.764-1.121,1.8-3.763,2.042-5.164,3.683-.761.881-1.041,2.082-1.721,3s-2.162,1.521-2.962.721a4.062,4.062,0,0,0-1.121-4.964,11.524,11.524,0,0,0-2.442-1.2,15.532,15.532,0,0,1-2.762-1.521,2.61,2.61,0,0,1-1-1.081,2.332,2.332,0,0,1,.08-1.721,7.011,7.011,0,0,1,5.564-4.6c1.081-.16,2.362-.08,3.122-.921.4-.44.6-1.121,1.161-1.281a1.55,1.55,0,0,1,1.041.12l4.083,1.441a2.968,2.968,0,0,0,1.441.24.971.971,0,0,0,.841-1.041c-.12-.68-1.161-1-1.081-1.681a.778.778,0,0,1,.36-.56,14.635,14.635,0,0,1,11.649-4.6c.52.841-.32,1.841-1,2.6s-1.241,2.042-.4,2.562a2.507,2.507,0,0,0,1.081.24,9.478,9.478,0,0,1,2.922.881,44.426,44.426,0,0,1,4.163,2.042,5.078,5.078,0,0,1,.12-2.682,1.838,1.838,0,0,1,2.162-1.161c.8.32,1.241,1.4,2.082,1.481,1.161.12,1.6-1.561,1.121-2.642s-1.441-1.962-1.521-3.122c-.04-.8.24-1.761-.4-2.242a1.291,1.291,0,0,0-.721-.24l-15.652-2.882c-.921-.16-2.282-.04-2.322.921-.04.52.44,1.041.24,1.521-.24.52-.961.48-1.481.64a2.012,2.012,0,0,0-1.161,2.122,6.318,6.318,0,0,0,.961,2.4C167.314,235.26,165.793,235.18,164.752,234.74Z" transform="translate(-40.785 -135.004)"/><path class="b" d="M269.655,215.609a5.043,5.043,0,0,0-5.564,1.681c-.24.32-.48.8-.24,1.161.32.52,1.081.32,1.681.12a4.262,4.262,0,0,1,2.642-.08c.56.2,1.041.52,1.561.681a1.628,1.628,0,0,0,1.641-.24,2.19,2.19,0,0,0,.4-1.521,1.318,1.318,0,0,0-.32-1,1.5,1.5,0,0,0-.721-.2,2.529,2.529,0,0,1-1.441-.841" transform="translate(-158.177 -129.163)"/><path class="b" d="M290.561,212.1a1.294,1.294,0,0,0-1.361,1.2,1.606,1.606,0,0,0,.12.6,4.592,4.592,0,0,0,2.082.12,1.757,1.757,0,0,0,1.441-1.321,3.257,3.257,0,0,1-2.362-.44" transform="translate(-173.438 -127.212)"/><path class="b" d="M331.924,203.008a24.538,24.538,0,0,0-5.324,1.8,4.049,4.049,0,0,1,2.562,4.043,1.709,1.709,0,0,0,.04,1c.2.48.761.64,1.281.761a8.073,8.073,0,0,0,2.762.36,2.735,2.735,0,0,0,2.282-1.4,5.564,5.564,0,0,1,.48-1.121c1.2-1.841,4.764.4,6.044-1.4.44-.64.4-1.561,1-2.042a2.36,2.36,0,0,1,1.041-.4,74.786,74.786,0,0,1,7.806-1.121c1.241-.12,2.882-.56,2.882-1.8a21.627,21.627,0,0,0-13.81,1.841c-1.561.761-3.563,2.4-5.084,1.361-.56-.4-.52-1.4-1.281-1.841A4.1,4.1,0,0,0,331.924,203.008Z" transform="translate(-195.867 -120.725)"/><path class="b" d="M377.061,205.611l2.2.44a2.83,2.83,0,0,0-2.962,2.722v.36c2.042.68,4.323,0,6.485.12s4.683,1.641,4.323,3.8c-.12.641-.48,1.281-.28,1.921.12.44.52.761.761,1.161a2.662,2.662,0,0,1-.48,2.682,24.375,24.375,0,0,0-1.841,2.2c-1.241,2.042-.56,4.643.2,6.925a5.777,5.777,0,0,0,1.161,2.322c1.121,1.161,2.922,1.281,4.523,1.321,1.161,0,2.522-.04,3.282-.961.961-1.2.28-3.042.921-4.443.6-1.281,2.082-1.8,3.4-2.2a57.289,57.289,0,0,0,7.285-2.362c2.882-1.321,5.6-3.4,8.767-3.563a12.114,12.114,0,0,0,2.682-.2,1.987,1.987,0,0,0,1.6-1.881c-.04-.761-.681-1.321-1.2-1.881s-.881-1.441-.44-2.042l8.326-1.561c-.6-1.6-1.041-3.723.32-4.764.48-.36,1.161-.52,1.561-1a1.971,1.971,0,0,0-.48-2.762,5.87,5.87,0,0,0-2.962-.921,77.164,77.164,0,0,0-10.968.08c-7.165.4-14.291.8-21.456,1.161a15.986,15.986,0,0,0-4.4.44c-1.121.4-1.921,1.161-3.2,1.441C381.784,204.651,379.222,204.29,377.061,205.611Z" transform="translate(-225.672 -120.486)"/><path class="b" d="M475.359,253.77a.751.751,0,0,0-.641.16.739.739,0,0,0-.2.48,3.175,3.175,0,0,0,.48,2.322,2.311,2.311,0,0,0,2.082,1c1-.12,1.721-.961,2.642-1.4,1.4-.64,7.366-1.641,3.242-3.843-1.441-.761-2.322-.08-3.443.4A7.993,7.993,0,0,1,475.359,253.77Z" transform="translate(-284.541 -151.231)"/><path class="b" d="M565.094,207.469a2.564,2.564,0,0,0-1.161,1,1,1,0,0,0,.36,1.321,1.272,1.272,0,0,0,.56.08l1.961.04c.841.04,1.881.2,2.082,1,.16.6-.2,1.361.24,1.8a1.087,1.087,0,0,0,.681.24,4.64,4.64,0,0,0,1.961.08c1.441-.4.681-1.241,1.121-2.042.68-1.2.56-.48,1.761-1.161.881-.52,2.042-1.4,1.321-2.682C574.7,204.988,566.975,206.509,565.094,207.469Z" transform="translate(-338.129 -123.585)"/><path class="b" d="M650.427,206.483l-1.121.16a49,49,0,0,0-7.606,1.441,12.2,12.2,0,0,0,3.322.8,10.174,10.174,0,0,1,1.881.28c1.081.32,2.2,1.161,3.242.721.641-.28.881-.961,1.4-1.321.36-.24,1.8-.64,1.961-.921C654.75,205.683,651.427,206.363,650.427,206.483Z" transform="translate(-384.833 -123.72)"/><path class="b" d="M668.141,218.1a21.017,21.017,0,0,0-4.2,3.082,2.65,2.65,0,0,0-1.041,1.841c.08.961,1.081,1.521,2,1.921l3.643,1.521c.44-.641.04-1.481-.4-2.082s-1-1.321-.8-2.042c.24-.841,1.241-1.121,2.122-1.281,1.4-.24,5.164-.2,4.723-2.482C673.625,215.934,669.542,217.3,668.141,218.1Z" transform="translate(-397.543 -130.168)"/><path class="b" d="M673.827,572.021a3.507,3.507,0,0,0,.2,3.042,2.979,2.979,0,0,0,3.162,1.081,5.825,5.825,0,0,0,2.962-1.881,9.365,9.365,0,0,0,1.681-2.6,18.679,18.679,0,0,0,1.241-4.6l1.121-5.924c.24-1.321.24-5.4-2.2-4.043-.68.36-2.2,3.2-2.882,4.043-1.241,1.441-1.441,2.882-2.081,4.643C676.228,567.978,674.587,569.819,673.827,572.021Z" transform="translate(-403.95 -333.941)"/><path class="b" d="M990.083,668.921a17.688,17.688,0,0,1-2.322-1.121,18.322,18.322,0,0,0-1.161,6.4l5.444-3.082c.8-.48,1.761-1.121,1.721-2.042a.706.706,0,0,0-.32-.6.658.658,0,0,0-.4-.04,9.852,9.852,0,0,0-2.322.761,2.716,2.716,0,0,1-2.362,0" transform="translate(-591.669 -400.498)"/><path class="b" d="M1053.946,672.337a9.279,9.279,0,0,0-1.761.64c-1.241.64-2.122,1.841-3.242,2.682a13.135,13.135,0,0,1-3.643,1.681.881.881,0,0,0,.2,1.281,2.553,2.553,0,0,0,1.441.32,7.513,7.513,0,0,0,3.883-.6,16.2,16.2,0,0,0,1.841-1.441,19.261,19.261,0,0,1,4.6-2.6,5.877,5.877,0,0,0,1.6-.961c1-1,1.081-2.522-.36-2.882C1057.308,670.176,1055.067,671.977,1053.946,672.337Z" transform="translate(-626.751 -402.074)"/><path class="b" d="M1091.661,648.823a4.482,4.482,0,0,0-1.4-3.723,6.722,6.722,0,0,1-.841,3.963c-.56.8-1.4,1.361-2,2.122a2.075,2.075,0,0,0-.16,2.682,2.746,2.746,0,0,0,1.561.56c1.4.16,3.042.24,4-.761.521-.56.8-1.361,1.441-1.8a1.831,1.831,0,0,0,.64-.44c.28-.44-.16-1-.64-1.161s-1-.08-1.521-.24-.921-.681-.681-1.121" transform="translate(-651.777 -386.885)"/><path class="b" d="M1009.517,521.661a6.06,6.06,0,0,1-2.242.12,8.038,8.038,0,0,1-3.242-1.961,14.3,14.3,0,0,0-8.326-2.922c-2.762-.04-5.524.68-8.206.16a3.219,3.219,0,0,0,1.922,2.162c.921.44,1.881.641,2.8,1.081a6.409,6.409,0,0,1,3.2,3.363,9.079,9.079,0,0,0,.921,2c.881,1.2,2.6,1.481,4.083,1.361,1.962-.12,4-.681,5.8.04,1.4.561,2.4,1.761,3.563,2.722s2.8,1.641,4.123.961a6.836,6.836,0,0,1-4.724-6.565c1.321.12,5.084.08,4.884-2.162C1013.88,520.18,1010.638,521.461,1009.517,521.661Z" transform="translate(-592.209 -310.001)"/><path class="b" d="M941.049,557.456c.24-1.281,1.521-2.4,1.121-3.643a2.236,2.236,0,0,0-2.161-1.281c-.881,0-1.761.24-2.682.28a8.639,8.639,0,0,0-1.761.04c-1.761.28-2.882,2.162-4.563,2.8a27.329,27.329,0,0,1-3.242.6c-2.4.64-3.923,2.922-5.6,4.724a19.931,19.931,0,0,1-10.168,5.924,9.413,9.413,0,0,0-3.923,1.4c-1.441,1.161-1.8,3.2-2.122,5.044A84.1,84.1,0,0,1,901.9,588.2l5.724.721a8.035,8.035,0,0,0,3.242-.04,9.414,9.414,0,0,0,2.162-1.161,21.679,21.679,0,0,1,8.366-3,8.955,8.955,0,0,1,4.483.32,4.144,4.144,0,0,1,2.722,3.323,3.559,3.559,0,0,1,3.523.841,6.264,6.264,0,0,1,1.681,3.363c.16.8.32,1.721,1.041,2.041.6.28,1.281-.04,1.922-.08,2.2-.16,4,2.4,6.165,1.961,2.322-.48,2.882-3.923,5.124-4.643,1.281-.4,3.122.08,3.723-1.121.56-1.081-.56-2.282-.44-3.483.12-1.481,1.881-2.082,3.2-2.722a9.989,9.989,0,0,0,4.563-12.89c-1.321-2.722-3.923-4.844-4.4-7.806-.36-2.282.52-4.964-.921-6.765-.761-.921-2-1.4-2.442-2.522a13.268,13.268,0,0,1-.32-2.2c-.16-.721-.8-1.481-1.481-1.281-2.082.56-2.762,6.965-3.843,8.526A2.591,2.591,0,0,1,941.049,557.456Z" transform="translate(-540.875 -330.465)"/><path class="b" d="M899.184,534.413a3.361,3.361,0,0,0-2.162-.12c-.68.28-1.081,1.281-.52,1.8a75.994,75.994,0,0,1,12.81.24c4.884.68,9.727,2.322,14.651,1.841a69.189,69.189,0,0,0-8.526-1.962l-4.8-.921a32.541,32.541,0,0,0-3.883-.6C903.948,534.453,901.906,535.173,899.184,534.413Z" transform="translate(-537.479 -320.351)"/><path class="b" d="M908.212,489.895c-.36-.04-.8-.04-.961.24s.04.68-.08,1c-.12.44-.721.56-1.161.48a2.254,2.254,0,0,0-1.361,0,1.14,1.14,0,0,0-.44,1.321,3.3,3.3,0,0,0,.8,1.281,12.315,12.315,0,0,0,2.042,2.042c1.481,1.081,3.483,1.6,4.4,3.2a1.925,1.925,0,0,0,.6.8,1.612,1.612,0,0,0,1.521-.16l1.681-.761a2.134,2.134,0,0,0,.8-.52,1.658,1.658,0,0,0-.16-1.8,3.329,3.329,0,0,1-.68-1.8c.12-1.161,1.6-1.6,2.2-2.562.6-1,.2-2.242.28-3.4.08-1.361.921-3.122-.44-4.123-1.161-.881-2.282-.08-3.122.881C912.295,488.013,911.454,490.175,908.212,489.895Z" transform="translate(-542.223 -290.724)"/><path class="b" d="M939.318,441c.56,1.081,1.761,1.761,2.4,2.8.681,1.161.6,2.642,1.321,3.763.761,1.161,2.282,1.761,2.682,3.082.48,1.441-.6,3.162.24,4.4a1.9,1.9,0,0,0,2.6.36l.12-.12a2.046,2.046,0,0,0-.08-2.8c-.48-.44-1.2-.64-1.6-1.161a2.4,2.4,0,0,1-.4-1,6.217,6.217,0,0,1,.12-3.2,1.522,1.522,0,0,0,.08-.841c-.2-.52-.921-.56-1.441-.841-1.161-.56-1.121-2.2-.921-3.483-.12.841-3.162-.6-3.483-1.081-.641-.961-.28-2.8-.4-3.883A3.02,3.02,0,0,0,939.318,441Z" transform="translate(-563.121 -262.088)"/><path class="b" d="M859.158,487.665c-.56-.64-1.4-1.281-2.162-.921a1.41,1.41,0,0,0-.52,1.681,3.336,3.336,0,0,0,1.241,1.441,39.4,39.4,0,0,1,4.6,3.963c2.442,2.682,3.723,6.325,6.4,8.807a3.533,3.533,0,0,0,2,1.081,1.563,1.563,0,0,0,1.721-1.2,2.244,2.244,0,0,0-.8-1.681c-1.041-1.121-2.162-2.162-3.122-3.322a2.888,2.888,0,0,1-.8-1.681c0-.64.56-1.281,1.2-1.121-.76-.2-1.281-1.441-2.4-1.681-.921-.2-1.121.36-2.242-.08C862.241,492.068,860.639,489.266,859.158,487.665Z" transform="translate(-513.585 -291.857)"/><path class="b" d="M968.657,335.376a15.572,15.572,0,0,1-1.761-.641c-1.521-.48-3.563.681-3.363,2.282.12,1.041,1.121,1.761,1.681,2.682a5.909,5.909,0,0,1,.16,4.6,3.96,3.96,0,0,1-.6,1.321,4.792,4.792,0,0,1-1.361,1,18.087,18.087,0,0,0-5.4,4.6,1.259,1.259,0,0,0-.32.6c-.08.52.48.921.761,1.361.68,1,.2,2.322.24,3.563a.894.894,0,0,0,.44.881c.4.2.881-.16,1.121-.56.721-1.321.2-3.483,1.561-4.123a1.742,1.742,0,0,0,.761-.4c.28-.36,0-.921.16-1.321.2-.64,1.121-.681,1.8-.64a10.189,10.189,0,0,0,3.483-.48,2.3,2.3,0,0,0,1.161-.681,2.613,2.613,0,0,0,.28-1.921,25.145,25.145,0,0,0-3.042-9.287,5.554,5.554,0,0,0,3.6-.36c.6-.36,1.281-1.4,1-2.122C970.5,334.616,969.657,335.577,968.657,335.376Z" transform="translate(-574.327 -200.694)"/><path class="b" d="M521.441,368.612a4.722,4.722,0,0,1,.04,2.362,1.609,1.609,0,0,1-1.8,1.161c-.6-.16-.921-.761-1.361-1.241-2.322-2.522-7.566-1.041-9.007-4.163-.6-1.281-.2-2.8-.6-4.123a3.635,3.635,0,0,0-3.723-2.522,8.094,8.094,0,0,0-2.122.641,55.771,55.771,0,0,1-14.171,3.563,12.515,12.515,0,0,0-2.722.48c-2,.721-3.362,2.562-4.323,4.483a31.342,31.342,0,0,1-3,5.6,24.033,24.033,0,0,1-5.084,4.323,5.063,5.063,0,0,0-1.681,1.761,5.21,5.21,0,0,0-.32,2.6l.36,10.728a9.8,9.8,0,0,0,.721,4.043c.761,1.561,2.282,2.562,3.363,3.923a7.733,7.733,0,0,1,1.6,4.924c-.04.721-.08,1.561.48,2a2.152,2.152,0,0,0,1.121.32l14.531,1.2c2.562.2,5.4.56,7.045,2.482.8.921,1.4,2.242,2.642,2.322a9.287,9.287,0,0,0,1.521-.2,3.7,3.7,0,0,1,3.162,1.961,8.786,8.786,0,0,1,1.4,5.644c-.12,1.241-.52,2.442-.6,3.723-.32,4.764,3.723,8.887,3.8,13.65.04,2.8-1.281,5.4-2.562,7.886,2.082,3.162.36,7.406,1.2,11.088.8,3.523,3.723,6.285,4.443,9.807.32,1.6.36,3.6,1.761,4.443a3.913,3.913,0,0,0,2,.4,26.373,26.373,0,0,0,12.089-2.762c1.761-.881,3.6-2.162,3.883-4.123.24-1.561-.56-3.322.28-4.684.961-1.6,3.4-1.481,4.8-2.722,2.282-2,.52-5.844,1.441-8.727.841-2.6,3.683-3.963,5.084-6.285a11.461,11.461,0,0,0,1.2-3.2,46.739,46.739,0,0,0,1.2-8.166c.04-1.681.16-3.363.36-5,1.521-9.447,10.888-15.812,13.93-24.9.28-.881.44-2.042-.36-2.522a2.323,2.323,0,0,0-1.481-.16l-6.685.841a4.345,4.345,0,0,1-2.482-.16,1.61,1.61,0,0,1-.921-2.042c1.121-2.042-1.2-4.684-2.242-6.765a100.377,100.377,0,0,0-9.967-16.172,1.648,1.648,0,0,1-.44-.961l1.921.08c-.64-2.322-1.721-4.844-3.923-5.684a9.607,9.607,0,0,0-4-.24A55.746,55.746,0,0,1,521.441,368.612Z" transform="translate(-282.788 -215.957)"/><path class="b" d="M552.134,228.409a6.44,6.44,0,0,0,3.6,2.4c2.562.32,4.443-2.322,5.6-4.644a2.293,2.293,0,0,0,2.362,2.122,5.775,5.775,0,0,0,1.8-.681,34.6,34.6,0,0,1,16.652-4.283,1.772,1.772,0,0,1,1.361-1.961c1.2-.24,2.242.8,2.8,1.841a10.014,10.014,0,0,0,1.841,3.082c.921.8,2.682.761,3-.4.36-1.121-.8-2.041-1.761-2.682s-1.961-1.841-1.321-2.8a88.545,88.545,0,0,1,14.811-2.4,5.921,5.921,0,0,0,2.482-.44,1.942,1.942,0,0,0,1.161-2.042,5.621,5.621,0,0,1-5.885-2.242c6.925-.56,14.331-1.081,20.5,2.2.72,1.6-3.042,2.922-2,4.323a1.833,1.833,0,0,0,1.521.52,76.048,76.048,0,0,0,12.81-.48,16.667,16.667,0,0,1,4.643-.36c2.6.32,4.8,2.042,7.326,2.6a3.92,3.92,0,0,0,3.082-.36,1.936,1.936,0,0,0,.52-2.762c2.4-2.362,6.365-1.761,9.527-.64s6.165,2.922,9.487,3.2c2.4.16,4.844-.48,7.205-.04a41.333,41.333,0,0,1,4.323,1.321c2.762.761,5.644.6,8.526.64a58.662,58.662,0,0,1,21.256,4.243,6.178,6.178,0,0,1,2.362,1.4,2.292,2.292,0,0,1,.52,2.562l-7.005-1.041c.641,1.281,2.362,1.521,3.763,1.961s2.8,1.961,2,3.162c-1.481-.48-2.842,1.041-3.6,2.4s-1.681,3.042-3.242,3.122c-1.4.08-3.122-1.121-4.043-.04a26.648,26.648,0,0,1,3.243,5.164c.921,1.881,1.561,4.283.32,5.964a1.5,1.5,0,0,1-.841.64c-1,.24-1.641-.961-2.362-1.721A9.022,9.022,0,0,0,697,249.625c-1.2-.44-2.522-1.321-2.6-2.6a5.53,5.53,0,0,1,.681-2.322,8.921,8.921,0,0,0,.68-3.963,4.532,4.532,0,0,0-1.161-3,2.383,2.383,0,0,0-3-.32c-.4.32-.721.841-1.241.881-.921.04-1.6-1.561-2.322-1a2.594,2.594,0,0,1-.32,1.641c-2.162,1.881-5.484,1.081-8.286,1.761a16.8,16.8,0,0,0-3.8,1.641,2.671,2.671,0,0,0-1.081.921,1.675,1.675,0,0,0,.641,2,5.128,5.128,0,0,0,2.162.721c3.4.641,6.885,1.641,9.567,3.843s4.443,5.8,3.6,9.167l-6.725-6.445c.24,2.682.4,5.4.44,8.126a4.09,4.09,0,0,1-.2,1.561c-.48,1.041-1.761,1.4-2.922,1.641a2.282,2.282,0,0,0-1.8,2.682.566.566,0,0,0,.08.24,9.236,9.236,0,0,0,2.322,3.363,6.463,6.463,0,0,1,1.961,3.563c.12,1.361-.921,2.922-2.282,2.842a3.111,3.111,0,0,1-2.282-1.961,15.151,15.151,0,0,0-1.361-2.8c-2.042-2.442-6.565-1.4-8.366-4a4.149,4.149,0,0,0-.841,3.883,2.179,2.179,0,0,1,2.642.721,20.519,20.519,0,0,1,1.441,2.6c.681,1.161,1.721,2.2,1.841,3.523a9.686,9.686,0,0,0,.04,1.521,6.114,6.114,0,0,0,1.321,2.082,5.864,5.864,0,0,1,.32,5.524,17.272,17.272,0,0,1-3.282,4.724,57.357,57.357,0,0,1-7.125,7.165,6.937,6.937,0,0,0-2,2.042,2.217,2.217,0,0,0,.24,2.642c-.52.04-1.441.28-1.961.32a45.727,45.727,0,0,1-.12-6.2c-2.042-.961-4.2,1.641-3.963,3.883s1.881,4.043,3.042,5.964a7.017,7.017,0,0,1,1.2,4.684,3.394,3.394,0,0,1-3.363,2.962c-2.6-.24-3.683-3.963-6.285-4.4a.986.986,0,0,0-.68.08c-.4.2-.44.721-.48,1.161a14.039,14.039,0,0,0,.641,6.325c1.241,2.882,4.363,5.324,3.723,8.366-3.563-1.641-5.444-5.644-6.285-9.527s-1-7.886-2.482-11.529c-1.161,1.481-3.563.24-4.6-1.281-1-1.481-1.6-3.162-2.562-4.643a5.683,5.683,0,0,0-4.2-2.882c-1.841-.08-3.443,1.2-4.884,2.4a11.578,11.578,0,0,0-3.042,3.363c-1,2-.721,4.323-.761,6.525a9.915,9.915,0,0,1-2.2,6.685c-1.641,1.761-4.643,2.362-6.445.8a7.025,7.025,0,0,1-1.8-3.242,156.226,156.226,0,0,1-4.884-17.413c-.32,1.361-1.481,3.082-2.6,2.282a2.807,2.807,0,0,1-.6-.761c-2.122-3.563-6-5.724-9.927-7.005s-8.086-1.881-11.969-3.282a30.927,30.927,0,0,1-6.2-3.082,4.883,4.883,0,0,0-.28,5,4.005,4.005,0,0,0,4.483,1.881c.881-.28,1.6-.881,2.442-1.161a1.956,1.956,0,0,1,2.4.681c.36.8-.2,1.761.08,2.562.4,1.241,2.322,1.361,2.962,2.482a2.374,2.374,0,0,1-.6,2.682,10.689,10.689,0,0,1-2.522,1.561c-2.8,1.561-4.764,4.2-7.205,6.285s-5.884,3.563-8.807,2.242c.68-3.523-3.483-6.085-4.243-9.567a33.173,33.173,0,0,0-.48-3.483c-.52-1.641-1.961-2.722-3.162-3.963a15.626,15.626,0,0,1-4.283-11.328,15.629,15.629,0,0,0,0-4.323,3.262,3.262,0,0,0-2.922-2.722c-3.282.16-7.446.4-9.167-2.4-.6-1-.881-2.482,0-3.242a3.1,3.1,0,0,1,2.4-.4l7.446.721c1.721.16,3.6.32,5.124-.6s2.122-3.323.76-4.4c-1-.8-2.8-.721-3.122-1.961-.24-1.041.921-2.2.28-3.082-.44-.6-1.441-.44-2.042,0s-1.041,1.161-1.721,1.481c-1.2.6-2.6.04-3.883-.36s-3-.44-3.6.761c-.681,1.321.6,3.042-.08,4.4-.921,1.761-4,.761-5.244,2.282-1.481,1.721,1,4.323.52,6.525a3.984,3.984,0,0,1-4-.24,3.849,3.849,0,0,1-1.681-3.643c.12-1,.64-2,.28-2.962a3.459,3.459,0,0,0-1.761-1.6l-7.205-4c-.68,1.241.16,2.8,1.241,3.723s2.4,1.641,3.082,2.882a3.779,3.779,0,0,1-1.4,4.964.776.776,0,0,1-.721.12.994.994,0,0,1-.48-.641c-1.281-3.242-3.2-6.485-6.245-8.166s-7.446-1.361-9.447,1.521a22.775,22.775,0,0,0-1.2,2.162c-2.2,3.843-6.925,5.644-11.369,5.524a2.189,2.189,0,0,1-1.241-.28c-.721-.48-.681-1.521-.56-2.4l.48-3.643a2.917,2.917,0,0,1,.8-2c.8-.64,2-.24,3.042-.24a3.87,3.87,0,0,0,3.483-2.682,4.353,4.353,0,0,0-1.2-4.323c-.48-.44-1.121-1-.881-1.6a1.507,1.507,0,0,1,.921-.64c1.881-.56,3.843-.681,5.684-1.321s3.643-1.961,4.043-3.843c.12-.6.2-1.281.721-1.561a2.091,2.091,0,0,1,.841-.16,3.992,3.992,0,0,0,3.443-4.2c.881-.6,2.122-.16,2.962.48a8.383,8.383,0,0,0,2.642,1.8c1.922.52,3.8-1.2,5.8-1.2a7.618,7.618,0,0,0,2.522,0c.8-.28,1.281-1.081,1.921-1.681s1.681-.961,2.282-.32l-.48-3.6a7.182,7.182,0,0,0,5.764-1.041l-6.285-2.122a1.471,1.471,0,0,1-.6-.32c-.44-.48,0-1.241.36-1.8.881-1.321,1.041-3.523-.44-4.2-1-.44-2.122.08-3.082.64l-4.563,2.562c-.16.881.921,1.361,1.561,1.961a2.613,2.613,0,0,1,.2,3.723,2.578,2.578,0,0,1-1.961.881,3.36,3.36,0,0,1,.6,2.8l-3.082.24a1.249,1.249,0,0,1-1-.2c-.32-.28-.281-.8-.36-1.241a2.659,2.659,0,0,0-2.242-1.961,8.5,8.5,0,0,0-3.162.28,1.783,1.783,0,0,1-1.361-.04,1.26,1.26,0,0,1-.52-.681,3.477,3.477,0,0,1,.681-3.322,16.826,16.826,0,0,1,2.642-2.4,15.294,15.294,0,0,0,4.563-7.045c1.681-.721,3.443-1.681,5.164-2.4a15.926,15.926,0,0,1,8.486-1.641l5.724.12a14.045,14.045,0,0,1,5,.721,4.719,4.719,0,0,1,3.082,3.763,1.1,1.1,0,0,1-.36,1.041,1.57,1.57,0,0,1-.72.16C554.416,227.969,553.735,228.369,552.134,228.409Z" transform="translate(-301.672 -127.673)"/><path class="b" d="M504.075,293.855a1.649,1.649,0,0,0,.44-1.681,3.1,3.1,0,0,0-3.242.6,4.94,4.94,0,0,0-.881,1.161c-.761,1.241-1.441,2.722-1,4.083a1.219,1.219,0,0,0,.52.721,1.049,1.049,0,0,0,.6.08,16.865,16.865,0,0,0,2.482-.16c.52-.08,1.081-.2,1.281-.681.24-.6-.36-1.321-.2-1.961a2.565,2.565,0,0,1,.52-.761.943.943,0,0,0,.32-.841.419.419,0,0,0-.721-.2" transform="translate(-299.407 -175.104)"/><path class="b" d="M517.462,282.439a8.351,8.351,0,0,0-2.242-.16,1.066,1.066,0,0,0-.48.12.656.656,0,0,0-.28.44,2.124,2.124,0,0,0,1.241,2.6,2.558,2.558,0,0,1,.761.32c.641.48.24,1.521.36,2.322.12.881,1,1.641.841,2.522-.12.721-.881,1.241-.761,1.961s1.081.961,1.8,1a2.016,2.016,0,0,0,1.281-.16,1.989,1.989,0,0,0,.8-1.161,6.879,6.879,0,0,0,.36-2.842,2.6,2.6,0,0,0-.32-1.241,5.152,5.152,0,0,0-.76-.841C518.663,285.681,520.184,283.239,517.462,282.439Z" transform="translate(-308.47 -169.292)"/><path class="c" d="M525.173,429.569S415.811,366.8,368.736,378.691c0,0-99.795,10.728-111.363,34.346,0,0-31.7-99.114-43.272-102.437" transform="translate(-128.401 -186.285)"/><path class="c" d="M257.372,412.077C275.706,363.2,440.91,309,440.91,309c-23.458,5.964-72.174,68.731-72.174,68.731S265.659,302.715,214.1,309.68c0,0,226.97,7.446,311.073,118.929" transform="translate(-128.401 -185.326)"/><circle class="d" cx="4.804" cy="4.804" r="4.804" transform="translate(80.895 119.511)"/><circle class="d" cx="4.804" cy="4.804" r="4.804" transform="translate(124.168 221.948)"/><circle class="d" cx="4.804" cy="4.804" r="4.804" transform="translate(307.705 118.87)"/><circle class="d" cx="4.804" cy="4.804" r="4.804" transform="translate(391.968 238.48)"/><circle class="d" cx="4.804" cy="4.804" r="4.804" transform="translate(235.531 187.602)"/></g></svg>