<svg xmlns="http://www.w3.org/2000/svg" xmlns:xlink="http://www.w3.org/1999/xlink" width="280.729" height="278.969" viewBox="0 0 280.729 278.969"><defs><style>.a{fill:url(#a);}.b{fill:#eceff1;}.c{fill:url(#b);}.d{fill:#ff62a0;}.e{fill:#ea4c85;}.f,.p{opacity:0.2;}.g{fill:url(#c);}.h{fill:#ffcc80;}.i{fill:url(#d);}.j{fill:#faf8e4;}.k{opacity:0.6;}.l{fill:url(#e);}.m{fill:url(#f);}.n,.p{fill:#fff;}.o{fill:url(#g);}.q{fill:url(#h);}.r{fill:url(#i);}</style><linearGradient id="a" x1="0.5" y1="-1.219" x2="0.5" y2="-0.219" gradientUnits="objectBoundingBox"><stop offset="0" stop-color="gray" stop-opacity="0.251"/><stop offset="0.54" stop-color="gray" stop-opacity="0.122"/><stop offset="1" stop-color="gray" stop-opacity="0.102"/></linearGradient><linearGradient id="b" x1="0.31" y1="0.836" x2="1.31" y2="0.836" xlink:href="#a"/><linearGradient id="c" x1="0.5" y1="2.877" x2="0.5" y2="3.877" xlink:href="#a"/><linearGradient id="d" x1="1.733" y1="1.482" x2="1.733" y2="2.323" xlink:href="#a"/><linearGradient id="e" x1="0.962" y1="1.182" x2="0.962" y2="2.023" xlink:href="#a"/><linearGradient id="f" x1="1.784" y1="0.432" x2="1.784" y2="1.273" xlink:href="#a"/><linearGradient id="g" x1="1.014" y1="0.133" x2="1.014" y2="0.974" xlink:href="#a"/><linearGradient id="h" x1="1.629" y1="5.966" x2="1.629" y2="6.79" xlink:href="#a"/><linearGradient id="i" x1="2.719" y1="0.947" x2="2.719" y2="1.991" xlink:href="#a"/></defs><rect class="a" width="28.475" height="125.534" transform="translate(132.538 153.435)"/><rect class="b" width="23.997" height="123.314" transform="translate(135.14 153.435)"/><path class="c" d="M259.669,145.3H131.38a34.138,34.138,0,0,0-12.783,2.832c-13.051,5.779-20.629,14.85-22.772,34.981v46.463l-33.986-.344c-6.851,0-9.339,10.755-9.339,18.026H282.1V169.144C282.1,155.978,272.07,145.3,259.669,145.3Z" transform="translate(-32.407 -89.69)"/><path class="d" d="M270.9,158.1H398a15.566,15.566,0,0,1,15.577,15.577v77.387H270.9V158.1Z" transform="translate(-167.22 -97.591)"/><path class="e" d="M207.384,158.1h0a34.464,34.464,0,0,1,34.484,34.484v41.6a16.857,16.857,0,0,1-16.878,16.878H189.778A16.857,16.857,0,0,1,172.9,234.186V192.545A34.456,34.456,0,0,1,207.384,158.1Z" transform="translate(-106.727 -97.591)"/><path class="f" d="M207.384,158.1h0a34.464,34.464,0,0,1,34.484,34.484v41.6a16.857,16.857,0,0,1-16.878,16.878H189.778A16.857,16.857,0,0,1,172.9,234.186V192.545A34.456,34.456,0,0,1,207.384,158.1Z" transform="translate(-106.727 -97.591)"/><path class="g" d="M456.975,125.7H428.5v47.228h12.936V146.9h15.539Z" transform="translate(-264.502 -77.591)"/><path class="h" d="M458.4,125.7h-24v43.478h8.994V145.219h15Z" transform="translate(-268.144 -77.591)"/><path class="i" d="M164.4,233.525l3.521-29.125,47.42,5.779L211.781,239.3Z" transform="translate(-101.48 -126.171)"/><rect class="j" width="27.403" height="46.118" transform="matrix(0.121, -0.993, 0.993, 0.121, 63.631, 106.197)"/><g class="k" transform="translate(68.17 81.329)"><rect class="e" width="4.363" height="5.856" transform="matrix(0.121, -0.993, 0.993, 0.121, 0, 4.331)"/><rect class="e" width="1.416" height="22.543" transform="matrix(0.121, -0.993, 0.993, 0.121, 3.721, 13.298)"/><rect class="e" width="0.957" height="16.419" transform="matrix(0.121, -0.993, 0.993, 0.121, 9.425, 17.067)"/></g><path class="l" d="M214.8,250.325l3.559-29.125,47.42,5.741L262.22,256.1Z" transform="translate(-132.59 -136.541)"/><rect class="j" width="27.403" height="46.118" transform="matrix(0.121, -0.993, 0.993, 0.121, 82.96, 112.636)"/><g class="k" transform="translate(87.467 87.728)"><rect class="e" width="4.363" height="5.856" transform="matrix(0.121, -0.993, 0.993, 0.121, 0, 4.331)"/><rect class="e" width="1.416" height="22.543" transform="matrix(0.121, -0.993, 0.993, 0.121, 3.759, 13.303)"/><rect class="e" width="0.957" height="16.419" transform="matrix(0.121, -0.993, 0.993, 0.121, 9.457, 17.063)"/></g><path class="m" d="M104.3,267.8l4.822-39.5,64.26,7.846L168.56,275.6Z" transform="translate(-64.382 -140.924)"/><rect class="n" width="37.124" height="62.537" transform="matrix(0.121, -0.993, 0.993, 0.121, 40.902, 125.293)"/><g class="k" transform="translate(47.014 91.61)"><rect class="e" width="5.894" height="7.961" transform="matrix(0.121, -0.993, 0.993, 0.121, 0, 5.851)"/><rect class="e" width="1.914" height="30.542" transform="matrix(0.121, -0.993, 0.993, 0.121, 5.098, 18)"/><rect class="e" width="1.263" height="22.275" transform="matrix(0.121, -0.993, 0.993, 0.121, 12.829, 23.093)"/></g><path class="o" d="M172.7,290.5l4.822-39.5,64.26,7.846L236.96,298.3Z" transform="translate(-106.603 -154.936)"/><rect class="n" width="37.124" height="62.537" transform="matrix(0.121, -0.993, 0.993, 0.121, 67.112, 133.989)"/><g class="k" transform="translate(73.233 100.269)"><rect class="e" width="5.894" height="7.961" transform="matrix(0.121, -0.993, 0.993, 0.121, 0, 5.851)"/><rect class="e" width="1.914" height="30.542" transform="matrix(0.121, -0.993, 0.993, 0.121, 5.055, 18.033)"/><rect class="e" width="1.263" height="22.275" transform="matrix(0.121, -0.993, 0.993, 0.121, 12.786, 23.126)"/></g><path class="f" d="M240.766,159h0a34.512,34.512,0,0,0-13.166,2.6,34.73,34.73,0,0,1,4.9-.344h0a34.464,34.464,0,0,1,34.484,34.484v54.73h8.229V193.484A34.432,34.432,0,0,0,240.766,159Z" transform="translate(-140.492 -98.147)"/><path class="e" d="M75.218,369.6h98.935v11.979H63.2A12.005,12.005,0,0,1,75.218,369.6Z" transform="translate(-39.012 -228.145)"/><path class="p" d="M75.218,369.6h98.935v11.979H63.2A12.005,12.005,0,0,1,75.218,369.6Z" transform="translate(-39.012 -228.145)"/><path class="q" d="M655.548,27.02l-1.148.536.115-.23-.076.038.115-.115L669.9,0l7.808,6.659,6.736,6.238-1.952.957,2.182,3.789Z" transform="translate(-403.944)"/><path class="e" d="M678.3,19.3l6.124,5.7L656.6,38.819l14.812-18.983Z" transform="translate(-405.302 -11.913)"/><path class="f" d="M678.3,19.3l6.124,5.7L656.6,38.819l14.812-18.983Z" transform="translate(-405.302 -11.913)"/><path class="d" d="M671.143,3.3,656.6,28.943,678.3,9.424Z" transform="translate(-405.302 -2.037)"/><path class="d" d="M684.677,32.429,656.7,41.652,680.084,24.2Z" transform="translate(-405.364 -14.938)"/><path class="r" d="M46.578,36.013l1.8.268-.268-.268h.153l-.23-.077L14.773,4.4,6.7,17.145,0,28.741l3.1.5L1.722,35.516Z" transform="translate(0 -2.716)"/><path class="e" d="M11.324,35.82,5.2,46.46l44.932,7.31L21.2,33.6Z" transform="translate(-3.21 -20.74)"/><path class="f" d="M11.324,35.82,5.2,46.46l44.932,7.31L21.2,33.6Z" transform="translate(-3.21 -20.74)"/><path class="d" d="M28.587,9,60.008,38.585,21.2,20.635Z" transform="translate(-13.086 -5.555)"/><path class="d" d="M9.5,61.772l43.171.842L12.37,48.3Z" transform="translate(-5.864 -29.814)"/></svg>