<svg xmlns="http://www.w3.org/2000/svg" width="37.549" height="26.284" viewBox="0 0 37.549 26.284"><defs><style>.a{fill:#4f434d;}</style></defs><path class="a" d="M5.632,43.265A3.755,3.755,0,1,0,1.877,39.51,3.758,3.758,0,0,0,5.632,43.265Zm26.284,0a3.755,3.755,0,1,0-3.755-3.755A3.758,3.758,0,0,0,31.917,43.265Zm1.877,1.877H30.039a3.744,3.744,0,0,0-2.646,1.091A8.582,8.582,0,0,1,31.8,52.652h3.872a1.875,1.875,0,0,0,1.877-1.877V48.9A3.758,3.758,0,0,0,33.794,45.142Zm-15.02,0A6.571,6.571,0,1,0,12.2,38.571,6.568,6.568,0,0,0,18.775,45.142ZM23.28,47.02h-.487a9.072,9.072,0,0,1-8.038,0h-.487A6.761,6.761,0,0,0,7.51,53.778v1.69a2.817,2.817,0,0,0,2.816,2.816h16.9a2.817,2.817,0,0,0,2.816-2.816v-1.69A6.761,6.761,0,0,0,23.28,47.02Zm-13.125-.786A3.744,3.744,0,0,0,7.51,45.142H3.755A3.758,3.758,0,0,0,0,48.9v1.877a1.875,1.875,0,0,0,1.877,1.877H5.744a8.6,8.6,0,0,1,4.412-6.419Z" transform="translate(0 -32)"/></svg>